<svg width="724" height="141" viewBox="0 0 724 141" fill="none" xmlns="http://www.w3.org/2000/svg">
<g opacity="0.1" filter="url(#filter0_d_56_20)">
<mask id="path-1-outside-1_56_20" maskUnits="userSpaceOnUse" x="4" y="0" width="716" height="133" fill="black">
<rect fill="white" x="4" width="716" height="133"/>
<path d="M54.2 18.96H37.46C35.54 18.96 34.58 19.44 34.58 20.4V132H15.68C11.6 132 8.9 131.34 7.58 130.02C6.38 128.7 5.78 125.94 5.78 121.74V12.12C5.78 7.92 6.38 5.16 7.58 3.84C8.9 2.51999 11.6 1.85999 15.68 1.85999H54.2V18.96ZM61.4 1.85999H80.3C84.38 1.85999 87.02 2.51999 88.22 3.84C89.54 5.16 90.2 7.92 90.2 12.12V121.56C90.2 125.76 89.54 128.58 88.22 130.02C86.9 131.34 84.26 132 80.3 132H61.4V71.7H41.78V54.6H61.4V1.85999ZM209.959 1.85999H236.959C245.719 1.85999 252.319 3.35999 256.759 6.36C261.319 9.35999 263.599 14.58 263.599 22.02V121.74C263.599 125.94 262.939 128.7 261.619 130.02C260.419 131.34 257.779 132 253.699 132H234.799V24.18C234.799 22.26 234.499 20.94 233.899 20.22C233.419 19.38 232.099 18.96 229.939 18.96H209.959V1.85999ZM144.619 132H125.719C121.639 132 118.939 131.34 117.619 130.02C116.419 128.7 115.819 125.94 115.819 121.74V9.05999C115.819 6.89999 116.419 5.16 117.619 3.84C118.819 2.51999 120.379 1.85999 122.299 1.85999H144.619V132ZM151.999 1.85999H198.079C199.999 1.85999 201.559 2.51999 202.759 3.84C203.959 5.16 204.559 6.89999 204.559 9.05999V118.86H185.839C182.239 118.86 179.659 117.9 178.099 115.98C176.539 113.94 175.759 110.7 175.759 106.26V24.18C175.759 22.26 175.459 20.94 174.859 20.22C174.379 19.38 173.059 18.96 170.899 18.96H151.999V1.85999ZM337.384 18.96H320.644C318.724 18.96 317.764 19.44 317.764 20.4V132H298.864C294.784 132 292.084 131.34 290.764 130.02C289.564 128.7 288.964 125.94 288.964 121.74V12.12C288.964 7.92 289.564 5.16 290.764 3.84C292.084 2.51999 294.784 1.85999 298.864 1.85999H337.384V18.96ZM344.584 1.85999H363.484C367.564 1.85999 370.204 2.51999 371.404 3.84C372.724 5.16 373.384 7.92 373.384 12.12V121.56C373.384 125.76 372.724 128.58 371.404 130.02C370.084 131.34 367.444 132 363.484 132H344.584V71.7H324.964V54.6H344.584V1.85999ZM497.823 1.85999V121.74C497.823 125.94 497.163 128.7 495.843 130.02C494.643 131.34 492.003 132 487.923 132H462.363C455.283 132 450.603 130.92 448.323 128.76C446.163 126.6 444.243 121.02 442.563 112.02C439.203 94.26 434.343 65.58 427.983 25.98C427.503 22.98 426.783 21.06 425.823 20.22C424.983 19.38 423.483 18.9 421.323 18.78H399.183V1.85999H438.243C441.243 1.85999 443.643 2.21999 445.443 2.94C447.243 3.66 448.683 5.21999 449.763 7.61999C450.963 9.89999 451.743 12.12 452.103 14.28C452.583 16.44 453.063 18.96 453.543 21.84C454.143 25.32 454.983 30.42 456.063 37.14C458.103 50.7 461.283 69.84 465.603 94.56C467.283 105.12 468.423 111.06 469.023 112.38C469.743 113.58 470.943 114.3 472.623 114.54V9.05999C472.623 6.89999 473.223 5.16 474.423 3.84C475.623 2.51999 477.183 1.85999 479.103 1.85999H497.823ZM399.183 25.08H417.903C419.823 25.08 421.383 25.74 422.583 27.06C423.783 28.38 424.383 30.12 424.383 32.28V121.74C424.383 125.82 423.843 128.58 422.763 130.02C421.683 131.34 419.523 132 416.283 132H399.183V25.08ZM572.052 18.96H555.312C553.392 18.96 552.432 19.44 552.432 20.4V132H533.532C529.452 132 526.752 131.34 525.432 130.02C524.232 128.7 523.632 125.94 523.632 121.74V12.12C523.632 7.92 524.232 5.16 525.432 3.84C526.752 2.51999 529.452 1.85999 533.532 1.85999H572.052V18.96ZM579.252 1.85999H598.152C602.232 1.85999 604.872 2.51999 606.072 3.84C607.392 5.16 608.052 7.92 608.052 12.12V121.56C608.052 125.76 607.392 128.58 606.072 130.02C604.752 131.34 602.112 132 598.152 132H579.252V71.7H559.632V54.6H579.252V1.85999ZM682.271 71.7H662.471V132H643.571C639.491 132 636.791 131.34 635.471 130.02C634.271 128.7 633.671 125.94 633.671 121.74V1.85999H655.991C657.911 1.85999 659.471 2.51999 660.671 3.84C661.871 5.16 662.471 6.89999 662.471 9.05999V54.6H682.271V71.7ZM689.471 1.85999H708.371C712.451 1.85999 715.091 2.51999 716.291 3.84C717.611 5.16 718.271 7.92 718.271 12.12V132H695.951C694.031 132 692.471 131.34 691.271 130.02C690.071 128.7 689.471 126.96 689.471 124.8V1.85999Z"/>
</mask>
<path d="M54.2 18.96H37.46C35.54 18.96 34.58 19.44 34.58 20.4V132H15.68C11.6 132 8.9 131.34 7.58 130.02C6.38 128.7 5.78 125.94 5.78 121.74V12.12C5.78 7.92 6.38 5.16 7.58 3.84C8.9 2.51999 11.6 1.85999 15.68 1.85999H54.2V18.96ZM61.4 1.85999H80.3C84.38 1.85999 87.02 2.51999 88.22 3.84C89.54 5.16 90.2 7.92 90.2 12.12V121.56C90.2 125.76 89.54 128.58 88.22 130.02C86.9 131.34 84.26 132 80.3 132H61.4V71.7H41.78V54.6H61.4V1.85999ZM209.959 1.85999H236.959C245.719 1.85999 252.319 3.35999 256.759 6.36C261.319 9.35999 263.599 14.58 263.599 22.02V121.74C263.599 125.94 262.939 128.7 261.619 130.02C260.419 131.34 257.779 132 253.699 132H234.799V24.18C234.799 22.26 234.499 20.94 233.899 20.22C233.419 19.38 232.099 18.96 229.939 18.96H209.959V1.85999ZM144.619 132H125.719C121.639 132 118.939 131.34 117.619 130.02C116.419 128.7 115.819 125.94 115.819 121.74V9.05999C115.819 6.89999 116.419 5.16 117.619 3.84C118.819 2.51999 120.379 1.85999 122.299 1.85999H144.619V132ZM151.999 1.85999H198.079C199.999 1.85999 201.559 2.51999 202.759 3.84C203.959 5.16 204.559 6.89999 204.559 9.05999V118.86H185.839C182.239 118.86 179.659 117.9 178.099 115.98C176.539 113.94 175.759 110.7 175.759 106.26V24.18C175.759 22.26 175.459 20.94 174.859 20.22C174.379 19.38 173.059 18.96 170.899 18.96H151.999V1.85999ZM337.384 18.96H320.644C318.724 18.96 317.764 19.44 317.764 20.4V132H298.864C294.784 132 292.084 131.34 290.764 130.02C289.564 128.7 288.964 125.94 288.964 121.74V12.12C288.964 7.92 289.564 5.16 290.764 3.84C292.084 2.51999 294.784 1.85999 298.864 1.85999H337.384V18.96ZM344.584 1.85999H363.484C367.564 1.85999 370.204 2.51999 371.404 3.84C372.724 5.16 373.384 7.92 373.384 12.12V121.56C373.384 125.76 372.724 128.58 371.404 130.02C370.084 131.34 367.444 132 363.484 132H344.584V71.7H324.964V54.6H344.584V1.85999ZM497.823 1.85999V121.74C497.823 125.94 497.163 128.7 495.843 130.02C494.643 131.34 492.003 132 487.923 132H462.363C455.283 132 450.603 130.92 448.323 128.76C446.163 126.6 444.243 121.02 442.563 112.02C439.203 94.26 434.343 65.58 427.983 25.98C427.503 22.98 426.783 21.06 425.823 20.22C424.983 19.38 423.483 18.9 421.323 18.78H399.183V1.85999H438.243C441.243 1.85999 443.643 2.21999 445.443 2.94C447.243 3.66 448.683 5.21999 449.763 7.61999C450.963 9.89999 451.743 12.12 452.103 14.28C452.583 16.44 453.063 18.96 453.543 21.84C454.143 25.32 454.983 30.42 456.063 37.14C458.103 50.7 461.283 69.84 465.603 94.56C467.283 105.12 468.423 111.06 469.023 112.38C469.743 113.58 470.943 114.3 472.623 114.54V9.05999C472.623 6.89999 473.223 5.16 474.423 3.84C475.623 2.51999 477.183 1.85999 479.103 1.85999H497.823ZM399.183 25.08H417.903C419.823 25.08 421.383 25.74 422.583 27.06C423.783 28.38 424.383 30.12 424.383 32.28V121.74C424.383 125.82 423.843 128.58 422.763 130.02C421.683 131.34 419.523 132 416.283 132H399.183V25.08ZM572.052 18.96H555.312C553.392 18.96 552.432 19.44 552.432 20.4V132H533.532C529.452 132 526.752 131.34 525.432 130.02C524.232 128.7 523.632 125.94 523.632 121.74V12.12C523.632 7.92 524.232 5.16 525.432 3.84C526.752 2.51999 529.452 1.85999 533.532 1.85999H572.052V18.96ZM579.252 1.85999H598.152C602.232 1.85999 604.872 2.51999 606.072 3.84C607.392 5.16 608.052 7.92 608.052 12.12V121.56C608.052 125.76 607.392 128.58 606.072 130.02C604.752 131.34 602.112 132 598.152 132H579.252V71.7H559.632V54.6H579.252V1.85999ZM682.271 71.7H662.471V132H643.571C639.491 132 636.791 131.34 635.471 130.02C634.271 128.7 633.671 125.94 633.671 121.74V1.85999H655.991C657.911 1.85999 659.471 2.51999 660.671 3.84C661.871 5.16 662.471 6.89999 662.471 9.05999V54.6H682.271V71.7ZM689.471 1.85999H708.371C712.451 1.85999 715.091 2.51999 716.291 3.84C717.611 5.16 718.271 7.92 718.271 12.12V132H695.951C694.031 132 692.471 131.34 691.271 130.02C690.071 128.7 689.471 126.96 689.471 124.8V1.85999Z" fill="black"/>
<path d="M54.2 18.96V19.96H55.2V18.96H54.2ZM34.58 132V133H35.58V132H34.58ZM7.58 130.02L6.84006 130.693L6.85607 130.71L6.87289 130.727L7.58 130.02ZM7.58 3.84L6.87289 3.13289L6.85607 3.14972L6.84006 3.16732L7.58 3.84ZM54.2 1.85999H55.2V0.859993H54.2V1.85999ZM61.4 1.85999V0.859993H60.4V1.85999H61.4ZM88.22 3.84L87.4801 4.51267L87.4961 4.53028L87.5129 4.5471L88.22 3.84ZM88.22 130.02L88.9271 130.727L88.9425 130.712L88.9572 130.696L88.22 130.02ZM61.4 132H60.4V133H61.4V132ZM61.4 71.7H62.4V70.7H61.4V71.7ZM41.78 71.7H40.78V72.7H41.78V71.7ZM41.78 54.6V53.6H40.78V54.6H41.78ZM61.4 54.6V55.6H62.4V54.6H61.4ZM54.2 17.96H37.46V19.96H54.2V17.96ZM37.46 17.96C36.4489 17.96 35.5417 18.0811 34.8528 18.4256C34.4942 18.6049 34.1651 18.8596 33.928 19.2153C33.6866 19.5773 33.58 19.985 33.58 20.4H35.58C35.58 20.3638 35.5844 20.3445 35.5865 20.3372C35.5884 20.3307 35.59 20.3278 35.5921 20.3247C35.5949 20.3204 35.6258 20.2751 35.7472 20.2144C36.0183 20.0789 36.5511 19.96 37.46 19.96V17.96ZM33.58 20.4V132H35.58V20.4H33.58ZM34.58 131H15.68V133H34.58V131ZM15.68 131C13.6864 131 12.0778 130.838 10.8325 130.534C9.57918 130.227 8.76923 129.795 8.28711 129.313L6.87289 130.727C7.71077 131.565 8.91082 132.123 10.3575 132.476C11.8122 132.832 13.5936 133 15.68 133V131ZM8.31994 129.347C7.88782 128.872 7.48959 128.047 7.20718 126.748C6.92775 125.462 6.78 123.8 6.78 121.74H4.78C4.78 123.88 4.93225 125.698 5.25282 127.172C5.57041 128.633 6.07218 129.848 6.84006 130.693L8.31994 129.347ZM6.78 121.74V12.12H4.78V121.74H6.78ZM6.78 12.12C6.78 10.0605 6.92775 8.39777 7.20718 7.11243C7.48959 5.81333 7.88782 4.988 8.31994 4.51267L6.84006 3.16732C6.07218 4.01199 5.57041 5.22666 5.25282 6.68756C4.93225 8.16222 4.78 9.97955 4.78 12.12H6.78ZM8.28711 4.5471C8.76923 4.06498 9.57918 3.63275 10.8325 3.32639C12.0778 3.02198 13.6864 2.85999 15.68 2.85999V0.859993C13.5936 0.859993 11.8122 1.028 10.3575 1.38359C8.91082 1.73724 7.71077 2.29502 6.87289 3.13289L8.28711 4.5471ZM15.68 2.85999H54.2V0.859993H15.68V2.85999ZM53.2 1.85999V18.96H55.2V1.85999H53.2ZM61.4 2.85999H80.3V0.859993H61.4V2.85999ZM80.3 2.85999C82.2946 2.85999 83.8856 3.02217 85.0975 3.32513C86.3197 3.6307 87.0657 4.05682 87.4801 4.51267L88.9599 3.16733C88.1744 2.30317 87.0003 1.73928 85.5825 1.38485C84.1544 1.02781 82.3854 0.859993 80.3 0.859993V2.85999ZM87.5129 4.5471C87.9911 5.02533 88.4247 5.8457 88.7324 7.13257C89.0378 8.40948 89.2 10.0647 89.2 12.12H91.2C91.2 9.97526 91.0322 8.15051 90.6776 6.66742C90.3253 5.19429 89.7689 3.97466 88.9271 3.13289L87.5129 4.5471ZM89.2 12.12V121.56H91.2V12.12H89.2ZM89.2 121.56C89.2 123.614 89.0379 125.287 88.7313 126.597C88.4229 127.915 87.9842 128.797 87.4829 129.344L88.9572 130.696C89.7759 129.803 90.3271 128.555 90.6787 127.053C91.0321 125.543 91.2 123.706 91.2 121.56H89.2ZM87.5129 129.313C87.0268 129.799 86.2272 130.23 85.0075 130.535C83.7938 130.838 82.2317 131 80.3 131V133C82.3283 133 84.0662 132.832 85.4925 132.475C86.9128 132.12 88.0932 131.561 88.9271 130.727L87.5129 129.313ZM80.3 131H61.4V133H80.3V131ZM62.4 132V71.7H60.4V132H62.4ZM61.4 70.7H41.78V72.7H61.4V70.7ZM42.78 71.7V54.6H40.78V71.7H42.78ZM41.78 55.6H61.4V53.6H41.78V55.6ZM62.4 54.6V1.85999H60.4V54.6H62.4ZM209.959 1.85999V0.859993H208.959V1.85999H209.959ZM256.759 6.36L256.199 7.18865L256.209 7.19542L256.759 6.36ZM261.619 130.02L260.912 129.313L260.895 129.33L260.879 129.347L261.619 130.02ZM234.799 132H233.799V133H234.799V132ZM233.899 20.22L233.031 20.7161L233.074 20.7926L233.131 20.8602L233.899 20.22ZM209.959 18.96H208.959V19.96H209.959V18.96ZM144.619 132V133H145.619V132H144.619ZM117.619 130.02L116.879 130.693L116.895 130.71L116.912 130.727L117.619 130.02ZM117.619 3.84L118.359 4.51267V4.51267L117.619 3.84ZM144.619 1.85999H145.619V0.859993H144.619V1.85999ZM151.999 1.85999V0.859993H150.999V1.85999H151.999ZM202.759 3.84L202.019 4.51267V4.51267L202.759 3.84ZM204.559 118.86V119.86H205.559V118.86H204.559ZM178.099 115.98L177.305 116.587L177.314 116.599L177.323 116.611L178.099 115.98ZM174.859 20.22L173.991 20.7161L174.035 20.7926L174.091 20.8602L174.859 20.22ZM151.999 18.96H150.999V19.96H151.999V18.96ZM209.959 2.85999H236.959V0.859993H209.959V2.85999ZM236.959 2.85999C245.634 2.85999 251.999 4.35082 256.199 7.18859L257.319 5.53141C252.639 2.36917 245.804 0.859993 236.959 0.859993V2.85999ZM256.209 7.19542C260.392 9.94701 262.599 14.7819 262.599 22.02H264.599C264.599 14.3781 262.246 8.77298 257.309 5.52458L256.209 7.19542ZM262.599 22.02V121.74H264.599V22.02H262.599ZM262.599 121.74C262.599 123.795 262.437 125.451 262.132 126.727C261.824 128.014 261.39 128.835 260.912 129.313L262.326 130.727C263.168 129.885 263.724 128.666 264.077 127.193C264.431 125.709 264.599 123.885 264.599 121.74H262.599ZM260.879 129.347C260.465 129.803 259.719 130.229 258.497 130.535C257.285 130.838 255.694 131 253.699 131V133C255.785 133 257.553 132.832 258.982 132.475C260.399 132.121 261.573 131.557 262.359 130.693L260.879 129.347ZM253.699 131H234.799V133H253.699V131ZM235.799 132V24.18H233.799V132H235.799ZM235.799 24.18C235.799 22.2313 235.51 20.5911 234.667 19.5798L233.131 20.8602C233.488 21.2889 233.799 22.2887 233.799 24.18H235.799ZM234.767 19.7238C234.358 19.0079 233.649 18.5755 232.852 18.3221C232.055 18.0685 231.071 17.96 229.939 17.96V19.96C230.967 19.96 231.723 20.0615 232.246 20.2279C232.769 20.3945 232.96 20.5921 233.031 20.7161L234.767 19.7238ZM229.939 17.96H209.959V19.96H229.939V17.96ZM210.959 18.96V1.85999H208.959V18.96H210.959ZM144.619 131H125.719V133H144.619V131ZM125.719 131C123.726 131 122.117 130.838 120.872 130.534C119.618 130.227 118.808 129.795 118.326 129.313L116.912 130.727C117.75 131.565 118.95 132.123 120.397 132.476C121.851 132.832 123.633 133 125.719 133V131ZM118.359 129.347C117.927 128.872 117.529 128.047 117.246 126.748C116.967 125.462 116.819 123.8 116.819 121.74H114.819C114.819 123.88 114.971 125.698 115.292 127.172C115.609 128.633 116.111 129.848 116.879 130.693L118.359 129.347ZM116.819 121.74V9.05999H114.819V121.74H116.819ZM116.819 9.05999C116.819 7.09359 117.36 5.61148 118.359 4.51267L116.879 3.16732C115.478 4.7085 114.819 6.7064 114.819 9.05999H116.819ZM118.359 4.51267C119.354 3.41835 120.637 2.85999 122.299 2.85999V0.859993C120.121 0.859993 118.284 1.62164 116.879 3.16733L118.359 4.51267ZM122.299 2.85999H144.619V0.859993H122.299V2.85999ZM143.619 1.85999V132H145.619V1.85999H143.619ZM151.999 2.85999H198.079V0.859993H151.999V2.85999ZM198.079 2.85999C199.741 2.85999 201.024 3.41835 202.019 4.51267L203.499 3.16733C202.094 1.62164 200.257 0.859993 198.079 0.859993V2.85999ZM202.019 4.51267C203.018 5.61148 203.559 7.09359 203.559 9.05999H205.559C205.559 6.7064 204.9 4.7085 203.499 3.16732L202.019 4.51267ZM203.559 9.05999V118.86H205.559V9.05999H203.559ZM204.559 117.86H185.839V119.86H204.559V117.86ZM185.839 117.86C182.398 117.86 180.171 116.944 178.875 115.349L177.323 116.611C179.147 118.856 182.08 119.86 185.839 119.86V117.86ZM178.893 115.373C177.534 113.594 176.759 110.624 176.759 106.26H174.759C174.759 110.776 175.545 114.286 177.305 116.587L178.893 115.373ZM176.759 106.26V24.18H174.759V106.26H176.759ZM176.759 24.18C176.759 22.2313 176.47 20.5911 175.627 19.5798L174.091 20.8602C174.448 21.2889 174.759 22.2887 174.759 24.18H176.759ZM175.727 19.7238C175.318 19.0079 174.609 18.5755 173.812 18.3221C173.015 18.0685 172.031 17.96 170.899 17.96V19.96C171.927 19.96 172.683 20.0615 173.206 20.2279C173.729 20.3945 173.92 20.5921 173.991 20.7161L175.727 19.7238ZM170.899 17.96H151.999V19.96H170.899V17.96ZM152.999 18.96V1.85999H150.999V18.96H152.999ZM337.384 18.96V19.96H338.384V18.96H337.384ZM317.764 132V133H318.764V132H317.764ZM290.764 130.02L290.024 130.693L290.04 130.71L290.056 130.727L290.764 130.02ZM290.764 3.84L290.056 3.13289L290.04 3.14972L290.024 3.16732L290.764 3.84ZM337.384 1.85999H338.384V0.859993H337.384V1.85999ZM344.584 1.85999V0.859993H343.584V1.85999H344.584ZM371.404 3.84L370.664 4.51267L370.68 4.53028L370.697 4.5471L371.404 3.84ZM371.404 130.02L372.111 130.727L372.126 130.712L372.141 130.696L371.404 130.02ZM344.584 132H343.584V133H344.584V132ZM344.584 71.7H345.584V70.7H344.584V71.7ZM324.964 71.7H323.964V72.7H324.964V71.7ZM324.964 54.6V53.6H323.964V54.6H324.964ZM344.584 54.6V55.6H345.584V54.6H344.584ZM337.384 17.96H320.644V19.96H337.384V17.96ZM320.644 17.96C319.633 17.96 318.725 18.0811 318.036 18.4256C317.678 18.6049 317.349 18.8596 317.112 19.2153C316.87 19.5773 316.764 19.985 316.764 20.4H318.764C318.764 20.3638 318.768 20.3445 318.77 20.3372C318.772 20.3307 318.774 20.3278 318.776 20.3247C318.779 20.3204 318.809 20.2751 318.931 20.2144C319.202 20.0789 319.735 19.96 320.644 19.96V17.96ZM316.764 20.4V132H318.764V20.4H316.764ZM317.764 131H298.864V133H317.764V131ZM298.864 131C296.87 131 295.261 130.838 294.016 130.534C292.763 130.227 291.953 129.795 291.471 129.313L290.056 130.727C290.894 131.565 292.094 132.123 293.541 132.476C294.996 132.832 296.777 133 298.864 133V131ZM291.504 129.347C291.071 128.872 290.673 128.047 290.391 126.748C290.111 125.462 289.964 123.8 289.964 121.74H287.964C287.964 123.88 288.116 125.698 288.436 127.172C288.754 128.633 289.256 129.848 290.024 130.693L291.504 129.347ZM289.964 121.74V12.12H287.964V121.74H289.964ZM289.964 12.12C289.964 10.0605 290.111 8.39777 290.391 7.11243C290.673 5.81333 291.071 4.988 291.504 4.51267L290.024 3.16732C289.256 4.01199 288.754 5.22666 288.436 6.68756C288.116 8.16222 287.964 9.97955 287.964 12.12H289.964ZM291.471 4.5471C291.953 4.06498 292.763 3.63275 294.016 3.32639C295.261 3.02198 296.87 2.85999 298.864 2.85999V0.859993C296.777 0.859993 294.996 1.028 293.541 1.38359C292.094 1.73724 290.894 2.29502 290.056 3.13289L291.471 4.5471ZM298.864 2.85999H337.384V0.859993H298.864V2.85999ZM336.384 1.85999V18.96H338.384V1.85999H336.384ZM344.584 2.85999H363.484V0.859993H344.584V2.85999ZM363.484 2.85999C365.478 2.85999 367.069 3.02217 368.281 3.32513C369.503 3.6307 370.249 4.05682 370.664 4.51267L372.144 3.16733C371.358 2.30317 370.184 1.73928 368.766 1.38485C367.338 1.02781 365.569 0.859993 363.484 0.859993V2.85999ZM370.697 4.5471C371.175 5.02533 371.608 5.8457 371.916 7.13257C372.221 8.40948 372.384 10.0647 372.384 12.12H374.384C374.384 9.97526 374.216 8.15051 373.861 6.66742C373.509 5.19429 372.952 3.97466 372.111 3.13289L370.697 4.5471ZM372.384 12.12V121.56H374.384V12.12H372.384ZM372.384 121.56C372.384 123.614 372.222 125.287 371.915 126.597C371.607 127.915 371.168 128.797 370.666 129.344L372.141 130.696C372.959 129.803 373.511 128.555 373.862 127.053C374.216 125.543 374.384 123.706 374.384 121.56H372.384ZM370.697 129.313C370.21 129.799 369.411 130.23 368.191 130.535C366.977 130.838 365.415 131 363.484 131V133C365.512 133 367.25 132.832 368.676 132.475C370.096 132.12 371.277 131.561 372.111 130.727L370.697 129.313ZM363.484 131H344.584V133H363.484V131ZM345.584 132V71.7H343.584V132H345.584ZM344.584 70.7H324.964V72.7H344.584V70.7ZM325.964 71.7V54.6H323.964V71.7H325.964ZM324.964 55.6H344.584V53.6H324.964V55.6ZM345.584 54.6V1.85999H343.584V54.6H345.584ZM497.823 1.85999H498.823V0.859993H497.823V1.85999ZM495.843 130.02L495.136 129.313L495.119 129.33L495.103 129.347L495.843 130.02ZM448.323 128.76L447.616 129.467L447.625 129.477L447.635 129.486L448.323 128.76ZM442.563 112.02L443.546 111.837L443.545 111.834L442.563 112.02ZM427.983 25.98L426.995 26.138L426.995 26.1386L427.983 25.98ZM425.823 20.22L425.116 20.9271L425.139 20.9506L425.164 20.9726L425.823 20.22ZM421.323 18.78L421.378 17.7815L421.35 17.78H421.323V18.78ZM399.183 18.78H398.183V19.78H399.183V18.78ZM399.183 1.85999V0.859993H398.183V1.85999H399.183ZM445.443 2.94L445.071 3.86847V3.86848L445.443 2.94ZM449.763 7.61999L448.851 8.03036L448.863 8.05846L448.878 8.08574L449.763 7.61999ZM452.103 14.28L451.116 14.4444L451.121 14.4708L451.126 14.4969L452.103 14.28ZM453.543 21.84L452.556 22.0044L452.557 22.0099L453.543 21.84ZM456.063 37.14L457.052 36.9912L457.05 36.9813L456.063 37.14ZM465.603 94.56L466.59 94.4029L466.589 94.3954L466.588 94.3878L465.603 94.56ZM469.023 112.38L468.112 112.794L468.136 112.846L468.165 112.895L469.023 112.38ZM472.623 114.54L472.481 115.53L473.623 115.693V114.54H472.623ZM474.423 3.84L475.163 4.51267V4.51267L474.423 3.84ZM399.183 25.08V24.08H398.183V25.08H399.183ZM422.583 27.06L421.843 27.7327L422.583 27.06ZM422.763 130.02L423.537 130.653L423.55 130.637L423.563 130.62L422.763 130.02ZM399.183 132H398.183V133H399.183V132ZM496.823 1.85999V121.74H498.823V1.85999H496.823ZM496.823 121.74C496.823 123.795 496.66 125.451 496.355 126.727C496.047 128.014 495.614 128.835 495.136 129.313L496.55 130.727C497.392 129.885 497.948 128.666 498.3 127.193C498.655 125.709 498.823 123.885 498.823 121.74H496.823ZM495.103 129.347C494.688 129.803 493.942 130.229 492.72 130.535C491.508 130.838 489.917 131 487.923 131V133C490.008 133 491.777 132.832 493.205 132.475C494.623 132.121 495.797 131.557 496.583 130.693L495.103 129.347ZM487.923 131H462.363V133H487.923V131ZM462.363 131C458.866 131 456.008 130.733 453.768 130.216C451.517 129.696 449.97 128.943 449.01 128.034L447.635 129.486C448.955 130.737 450.889 131.604 453.318 132.164C455.757 132.727 458.779 133 462.363 133V131ZM449.03 128.053C448.117 127.14 447.157 125.386 446.208 122.63C445.27 119.904 444.381 116.312 443.546 111.837L441.58 112.203C442.424 116.728 443.335 120.426 444.317 123.28C445.289 126.104 446.368 128.22 447.616 129.467L449.03 128.053ZM443.545 111.834C440.188 94.0888 435.33 65.4205 428.97 25.8214L426.995 26.1386C433.355 65.7395 438.217 94.4312 441.58 112.206L443.545 111.834ZM428.97 25.822C428.724 24.2844 428.411 22.9835 428.019 21.9389C427.633 20.9083 427.139 20.0431 426.481 19.4674L425.164 20.9726C425.466 21.2369 425.813 21.7517 426.146 22.6411C426.475 23.5165 426.761 24.6756 426.995 26.138L428.97 25.822ZM426.53 19.5129C425.42 18.4035 423.603 17.9052 421.378 17.7815L421.267 19.7785C423.362 19.8948 424.545 20.3564 425.116 20.9271L426.53 19.5129ZM421.323 17.78H399.183V19.78H421.323V17.78ZM400.183 18.78V1.85999H398.183V18.78H400.183ZM399.183 2.85999H438.243V0.859993H399.183V2.85999ZM438.243 2.85999C441.178 2.85999 443.436 3.21433 445.071 3.86847L445.814 2.01152C443.849 1.22565 441.308 0.859993 438.243 0.859993V2.85999ZM445.071 3.86848C446.555 4.46212 447.838 5.78034 448.851 8.03036L450.675 7.20963C449.527 4.65965 447.93 2.85787 445.814 2.01152L445.071 3.86848ZM448.878 8.08574C450.037 10.2876 450.777 12.4063 451.116 14.4444L453.089 14.1156C452.709 11.8337 451.889 9.51239 450.648 7.15425L448.878 8.08574ZM451.126 14.4969C451.602 16.635 452.078 19.1368 452.556 22.0044L454.529 21.6756C454.047 18.7832 453.564 16.2449 453.079 14.0631L451.126 14.4969ZM452.557 22.0099C453.156 25.4842 453.995 30.5797 455.075 37.2987L457.05 36.9813C455.97 30.2603 455.129 25.1558 454.528 21.6701L452.557 22.0099ZM455.074 37.2888C457.116 50.8605 460.297 70.0096 464.618 94.7321L466.588 94.3878C462.268 69.6704 459.09 50.5395 457.052 36.9912L455.074 37.2888ZM464.615 94.7171C465.456 100.001 466.163 104.138 466.736 107.123C467.022 108.616 467.276 109.828 467.499 110.757C467.715 111.659 467.918 112.366 468.112 112.794L469.933 111.966C469.828 111.734 469.663 111.203 469.444 110.291C469.231 109.404 468.983 108.225 468.7 106.747C468.133 103.792 467.43 99.679 466.59 94.4029L464.615 94.7171ZM468.165 112.895C469.073 114.408 470.573 115.257 472.481 115.53L472.764 113.55C471.312 113.343 470.412 112.752 469.88 111.866L468.165 112.895ZM473.623 114.54V9.05999H471.623V114.54H473.623ZM473.623 9.05999C473.623 7.09359 474.164 5.61148 475.163 4.51267L473.683 3.16732C472.282 4.7085 471.623 6.7064 471.623 9.05999H473.623ZM475.163 4.51267C476.157 3.41835 477.44 2.85999 479.103 2.85999V0.859993C476.925 0.859993 475.088 1.62164 473.683 3.16733L475.163 4.51267ZM479.103 2.85999H497.823V0.859993H479.103V2.85999ZM399.183 26.08H417.903V24.08H399.183V26.08ZM417.903 26.08C419.565 26.08 420.848 26.6384 421.843 27.7327L423.323 26.3873C421.917 24.8416 420.08 24.08 417.903 24.08V26.08ZM421.843 27.7327C422.842 28.8315 423.383 30.3136 423.383 32.28H425.383C425.383 29.9264 424.724 27.9285 423.323 26.3873L421.843 27.7327ZM423.383 32.28V121.74H425.383V32.28H423.383ZM423.383 121.74C423.383 123.742 423.25 125.383 422.996 126.678C422.741 127.985 422.376 128.87 421.963 129.42L423.563 130.62C424.23 129.73 424.675 128.515 424.959 127.062C425.246 125.597 425.383 123.818 425.383 121.74H423.383ZM421.989 129.387C421.214 130.334 419.47 131 416.283 131V133C419.575 133 422.152 132.346 423.537 130.653L421.989 129.387ZM416.283 131H399.183V133H416.283V131ZM400.183 132V25.08H398.183V132H400.183ZM572.052 18.96V19.96H573.052V18.96H572.052ZM552.432 132V133H553.432V132H552.432ZM525.432 130.02L524.692 130.693L524.708 130.71L524.724 130.727L525.432 130.02ZM525.432 3.84L524.724 3.13289L524.708 3.14972L524.692 3.16732L525.432 3.84ZM572.052 1.85999H573.052V0.859993H572.052V1.85999ZM579.252 1.85999V0.859993H578.252V1.85999H579.252ZM606.072 3.84L605.332 4.51267L605.348 4.53028L605.364 4.5471L606.072 3.84ZM606.072 130.02L606.779 130.727L606.794 130.712L606.809 130.696L606.072 130.02ZM579.252 132H578.252V133H579.252V132ZM579.252 71.7H580.252V70.7H579.252V71.7ZM559.632 71.7H558.632V72.7H559.632V71.7ZM559.632 54.6V53.6H558.632V54.6H559.632ZM579.252 54.6V55.6H580.252V54.6H579.252ZM572.052 17.96H555.312V19.96H572.052V17.96ZM555.312 17.96C554.3 17.96 553.393 18.0811 552.704 18.4256C552.346 18.6049 552.017 18.8596 551.78 19.2153C551.538 19.5773 551.432 19.985 551.432 20.4H553.432C553.432 20.3638 553.436 20.3445 553.438 20.3372C553.44 20.3307 553.442 20.3278 553.444 20.3247C553.446 20.3204 553.477 20.2751 553.599 20.2144C553.87 20.0789 554.403 19.96 555.312 19.96V17.96ZM551.432 20.4V132H553.432V20.4H551.432ZM552.432 131H533.532V133H552.432V131ZM533.532 131C531.538 131 529.929 130.838 528.684 130.534C527.431 130.227 526.621 129.795 526.139 129.313L524.724 130.727C525.562 131.565 526.762 132.123 528.209 132.476C529.664 132.832 531.445 133 533.532 133V131ZM526.172 129.347C525.739 128.872 525.341 128.047 525.059 126.748C524.779 125.462 524.632 123.8 524.632 121.74H522.632C522.632 123.88 522.784 125.698 523.104 127.172C523.422 128.633 523.924 129.848 524.692 130.693L526.172 129.347ZM524.632 121.74V12.12H522.632V121.74H524.632ZM524.632 12.12C524.632 10.0605 524.779 8.39777 525.059 7.11243C525.341 5.81333 525.739 4.988 526.172 4.51267L524.692 3.16732C523.924 4.01199 523.422 5.22666 523.104 6.68756C522.784 8.16222 522.632 9.97955 522.632 12.12H524.632ZM526.139 4.5471C526.621 4.06498 527.431 3.63275 528.684 3.32639C529.929 3.02198 531.538 2.85999 533.532 2.85999V0.859993C531.445 0.859993 529.664 1.028 528.209 1.38359C526.762 1.73724 525.562 2.29502 524.724 3.13289L526.139 4.5471ZM533.532 2.85999H572.052V0.859993H533.532V2.85999ZM571.052 1.85999V18.96H573.052V1.85999H571.052ZM579.252 2.85999H598.152V0.859993H579.252V2.85999ZM598.152 2.85999C600.146 2.85999 601.737 3.02217 602.949 3.32513C604.171 3.6307 604.917 4.05682 605.332 4.51267L606.812 3.16733C606.026 2.30317 604.852 1.73928 603.434 1.38485C602.006 1.02781 600.237 0.859993 598.152 0.859993V2.85999ZM605.364 4.5471C605.843 5.02533 606.276 5.8457 606.584 7.13257C606.889 8.40948 607.052 10.0647 607.052 12.12H609.052C609.052 9.97526 608.884 8.15051 608.529 6.66742C608.177 5.19429 607.62 3.97466 606.779 3.13289L605.364 4.5471ZM607.052 12.12V121.56H609.052V12.12H607.052ZM607.052 121.56C607.052 123.614 606.89 125.287 606.583 126.597C606.274 127.915 605.836 128.797 605.334 129.344L606.809 130.696C607.627 129.803 608.179 128.555 608.53 127.053C608.884 125.543 609.052 123.706 609.052 121.56H607.052ZM605.364 129.313C604.878 129.799 604.079 130.23 602.859 130.535C601.645 130.838 600.083 131 598.152 131V133C600.18 133 601.918 132.832 603.344 132.475C604.764 132.12 605.945 131.561 606.779 130.727L605.364 129.313ZM598.152 131H579.252V133H598.152V131ZM580.252 132V71.7H578.252V132H580.252ZM579.252 70.7H559.632V72.7H579.252V70.7ZM560.632 71.7V54.6H558.632V71.7H560.632ZM559.632 55.6H579.252V53.6H559.632V55.6ZM580.252 54.6V1.85999H578.252V54.6H580.252ZM682.271 71.7V72.7H683.271V71.7H682.271ZM662.471 71.7V70.7H661.471V71.7H662.471ZM662.471 132V133H663.471V132H662.471ZM635.471 130.02L634.731 130.693L634.747 130.71L634.763 130.727L635.471 130.02ZM633.671 1.85999V0.859993H632.671V1.85999H633.671ZM660.671 3.84L659.931 4.51267V4.51267L660.671 3.84ZM662.471 54.6H661.471V55.6H662.471V54.6ZM682.271 54.6H683.271V53.6H682.271V54.6ZM689.471 1.85999V0.859993H688.471V1.85999H689.471ZM716.291 3.84L715.551 4.51267L715.567 4.53028L715.583 4.5471L716.291 3.84ZM718.271 132V133H719.271V132H718.271ZM691.271 130.02L692.011 129.347L691.271 130.02ZM682.271 70.7H662.471V72.7H682.271V70.7ZM661.471 71.7V132H663.471V71.7H661.471ZM662.471 131H643.571V133H662.471V131ZM643.571 131C641.577 131 639.968 130.838 638.723 130.534C637.47 130.227 636.66 129.795 636.178 129.313L634.763 130.727C635.601 131.565 636.801 132.123 638.248 132.476C639.703 132.832 641.484 133 643.571 133V131ZM636.211 129.347C635.778 128.872 635.38 128.047 635.098 126.748C634.818 125.462 634.671 123.8 634.671 121.74H632.671C632.671 123.88 632.823 125.698 633.143 127.172C633.461 128.633 633.963 129.848 634.731 130.693L636.211 129.347ZM634.671 121.74V1.85999H632.671V121.74H634.671ZM633.671 2.85999H655.991V0.859993H633.671V2.85999ZM655.991 2.85999C657.653 2.85999 658.936 3.41835 659.931 4.51267L661.411 3.16733C660.005 1.62164 658.168 0.859993 655.991 0.859993V2.85999ZM659.931 4.51267C660.93 5.61148 661.471 7.09359 661.471 9.05999H663.471C663.471 6.7064 662.812 4.7085 661.411 3.16732L659.931 4.51267ZM661.471 9.05999V54.6H663.471V9.05999H661.471ZM662.471 55.6H682.271V53.6H662.471V55.6ZM681.271 54.6V71.7H683.271V54.6H681.271ZM689.471 2.85999H708.371V0.859993H689.471V2.85999ZM708.371 2.85999C710.365 2.85999 711.956 3.02217 713.168 3.32513C714.39 3.6307 715.136 4.05682 715.551 4.51267L717.031 3.16733C716.245 2.30317 715.071 1.73928 713.653 1.38485C712.225 1.02781 710.456 0.859993 708.371 0.859993V2.85999ZM715.583 4.5471C716.062 5.02533 716.495 5.8457 716.803 7.13257C717.108 8.40948 717.271 10.0647 717.271 12.12H719.271C719.271 9.97526 719.103 8.15051 718.748 6.66742C718.396 5.19429 717.84 3.97466 716.998 3.13289L715.583 4.5471ZM717.271 12.12V132H719.271V12.12H717.271ZM718.271 131H695.951V133H718.271V131ZM695.951 131C694.288 131 693.005 130.442 692.011 129.347L690.531 130.693C691.936 132.238 693.773 133 695.951 133V131ZM692.011 129.347C691.012 128.249 690.471 126.766 690.471 124.8H688.471C688.471 127.154 689.13 129.151 690.531 130.693L692.011 129.347ZM690.471 124.8V1.85999H688.471V124.8H690.471Z" fill="black" mask="url(#path-1-outside-1_56_20)"/>
</g>
<defs>
<filter id="filter0_d_56_20" x="0.779999" y="0.859985" width="722.491" height="140.14" filterUnits="userSpaceOnUse" color-interpolation-filters="sRGB">
<feFlood flood-opacity="0" result="BackgroundImageFix"/>
<feColorMatrix in="SourceAlpha" type="matrix" values="0 0 0 0 0 0 0 0 0 0 0 0 0 0 0 0 0 0 127 0" result="hardAlpha"/>
<feOffset dy="4"/>
<feGaussianBlur stdDeviation="2"/>
<feComposite in2="hardAlpha" operator="out"/>
<feColorMatrix type="matrix" values="0 0 0 0 0 0 0 0 0 0 0 0 0 0 0 0 0 0 0.25 0"/>
<feBlend mode="normal" in2="BackgroundImageFix" result="effect1_dropShadow_56_20"/>
<feBlend mode="normal" in="SourceGraphic" in2="effect1_dropShadow_56_20" result="shape"/>
</filter>
</defs>
</svg>
